<?xml version="1.0" standalone="no"?>
<!DOCTYPE svg PUBLIC "-//W3C//DTD SVG 20010904//EN"
 "http://www.w3.org/TR/2001/REC-SVG-20010904/DTD/svg10.dtd">
<svg version="1.0" xmlns="http://www.w3.org/2000/svg"
 width="194.000000pt" height="230.000000pt" viewBox="0 0 194.000000 230.000000"
 preserveAspectRatio="xMidYMid meet">

<g transform="translate(0.000000,230.000000) scale(0.100000,-0.100000)"
fill="#000000" stroke="none">
<path d="M0 1150 l0 -1150 970 0 970 0 0 1150 0 1150 -970 0 -970 0 0 -1150z
m1005 1043 c21 -50 43 -73 156 -158 53 -40 108 -88 123 -106 27 -32 27 -32 59
-16 18 9 39 22 48 29 33 23 49 3 49 -61 l0 -59 43 -7 c23 -4 88 -27 143 -51
122 -52 184 -69 224 -60 63 12 75 -11 35 -70 -31 -46 -41 -84 -54 -204 -6 -52
-18 -119 -26 -148 -9 -29 -13 -57 -10 -62 4 -6 24 -19 46 -30 50 -26 53 -55 6
-75 -54 -22 -61 -36 -43 -88 8 -24 20 -93 27 -152 12 -118 27 -170 60 -217 33
-46 17 -64 -54 -60 -46 3 -70 -3 -144 -33 -95 -40 -182 -70 -225 -80 -26 -5
-28 -9 -28 -60 0 -70 -18 -83 -68 -49 -44 30 -66 30 -86 -1 -9 -13 -61 -58
-116 -100 -120 -91 -137 -108 -162 -162 -26 -58 -50 -57 -78 2 -23 48 -81 104
-170 165 -30 20 -74 58 -97 83 -45 49 -45 49 -113 4 -36 -23 -48 -10 -52 58
l-3 60 -45 7 c-42 6 -68 16 -227 82 -46 19 -80 26 -128 26 -62 0 -65 1 -65 24
0 14 5 28 11 32 25 15 50 99 65 211 8 65 21 138 29 163 17 50 14 55 -45 87
-44 25 -49 47 -13 62 15 6 39 20 52 30 24 18 24 19 8 59 -9 22 -23 97 -32 167
-14 117 -20 138 -66 222 -20 37 -5 56 39 48 51 -8 120 9 217 52 44 20 107 44
140 53 l60 17 3 57 c4 69 17 77 69 42 21 -14 42 -26 48 -26 6 0 27 16 46 36
18 20 75 67 125 105 96 72 138 118 150 163 10 42 50 36 69 -11z"/>
<path d="M940 2093 c-11 -15 -69 -63 -127 -108 -59 -44 -108 -86 -111 -93 -2
-8 9 -12 35 -12 21 -1 57 -5 81 -9 41 -8 45 -7 78 27 19 20 37 46 40 58 3 12
13 25 21 28 18 7 43 -10 43 -30 0 -7 18 -32 40 -55 27 -29 44 -39 56 -35 10 4
44 9 76 13 32 3 58 9 58 12 0 11 -59 63 -144 127 -43 32 -85 69 -94 81 -19 29
-26 29 -52 -4z"/>
<path d="M938 1853 c-12 -14 -55 -49 -95 -79 -72 -54 -103 -94 -103 -135 0
-16 4 -19 18 -14 109 47 230 56 337 27 39 -10 79 -23 89 -27 17 -8 19 -5 13
24 -9 45 -36 74 -143 158 l-92 71 -24 -25z"/>
<path d="M556 1816 c-4 -19 -20 -65 -37 -101 -17 -37 -28 -69 -26 -71 2 -2 24
3 48 12 28 10 61 14 91 10 46 -5 47 -5 59 31 6 19 29 53 50 74 22 22 39 40 39
42 0 2 -21 4 -47 6 -44 2 -112 14 -154 27 -13 3 -18 -4 -23 -30z"/>
<path d="M1305 1834 c-27 -7 -66 -14 -85 -14 -57 -1 -64 -12 -29 -46 18 -16
40 -48 51 -71 l18 -42 48 5 c30 4 63 0 92 -10 24 -8 45 -14 46 -13 1 1 -6 18
-15 38 -16 32 -47 117 -57 157 -4 14 -5 14 -69 -4z"/>
<path d="M420 1743 c-8 -3 -60 -25 -115 -48 -55 -24 -117 -47 -138 -50 -30 -6
-37 -11 -32 -24 11 -25 34 -162 35 -198 0 -42 20 -133 28 -133 4 0 17 15 29
33 13 17 33 44 47 60 21 24 23 32 14 69 -5 22 -18 54 -29 70 -29 40 -19 58 33
58 24 0 60 5 80 10 30 9 39 17 49 48 6 20 20 54 31 75 17 35 17 37 1 36 -10 0
-25 -3 -33 -6z"/>
<path d="M1500 1678 c33 -83 51 -97 138 -98 62 0 65 -9 27 -84 -14 -27 -25
-58 -25 -68 0 -17 83 -129 100 -136 4 -2 13 37 19 85 14 107 35 222 45 246 6
12 4 17 -8 17 -24 0 -122 34 -197 68 -35 17 -78 33 -96 37 l-31 6 28 -73z"/>
<path d="M540 1590 c-30 -11 -73 -29 -95 -39 -22 -10 -55 -22 -73 -26 -29 -6
-33 -10 -28 -28 4 -12 11 -60 17 -107 5 -47 15 -101 21 -120 10 -34 44 -80 58
-80 4 0 12 25 19 56 19 99 76 201 152 276 l68 67 -37 11 c-45 12 -36 13 -102
-10z"/>
<path d="M868 1595 c-92 -23 -149 -55 -219 -124 -70 -71 -99 -121 -124 -216
-18 -69 -19 -112 -5 -186 27 -140 125 -267 255 -329 61 -30 82 -35 166 -38
175 -8 304 53 401 188 58 81 81 169 76 288 -3 84 -8 106 -36 164 -63 131 -173
220 -313 253 -77 18 -126 18 -201 0z"/>
<path d="M1286 1597 l-29 -13 51 -44 c89 -75 172 -227 172 -315 0 -39 6 -42
37 -20 28 20 42 63 58 182 7 54 16 105 19 114 5 12 0 18 -24 22 -17 4 -68 22
-113 41 -101 43 -134 49 -171 33z"/>
<path d="M251 1251 c-29 -39 -63 -78 -74 -86 l-21 -15 21 -15 c12 -9 46 -47
75 -86 l52 -71 12 51 c6 27 23 66 38 85 l26 35 -25 37 c-14 20 -30 55 -36 78
-5 22 -11 45 -13 50 -1 5 -26 -23 -55 -63z"/>
<path d="M1621 1273 c-7 -27 -23 -65 -37 -85 l-24 -37 25 -37 c24 -35 45 -93
45 -123 0 -8 14 6 31 30 17 24 50 63 72 86 l41 43 -35 37 c-20 21 -51 59 -69
86 -18 26 -34 47 -36 47 -1 0 -7 -21 -13 -47z"/>
<path d="M406 1079 c-14 -17 -26 -34 -26 -37 -1 -18 -30 -214 -35 -235 -6 -22
-2 -25 27 -31 18 -3 69 -22 113 -41 79 -34 145 -44 174 -26 11 7 0 23 -50 73
-35 34 -78 90 -96 123 -28 54 -38 84 -58 178 -7 35 -17 34 -49 -4z"/>
<path d="M1482 1104 c11 -11 -22 -125 -56 -192 -33 -64 -85 -126 -143 -172
-22 -17 -25 -23 -13 -30 32 -21 100 -10 194 30 51 22 103 40 116 40 17 0 21 4
16 17 -4 10 -14 63 -21 119 -20 138 -44 194 -83 194 -9 0 -13 -3 -10 -6z"/>
<path d="M182 958 c-6 -35 -14 -92 -18 -128 -4 -36 -13 -85 -20 -110 -18 -60
-20 -57 27 -65 23 -4 87 -27 143 -50 55 -24 113 -47 128 -50 l26 -7 -31 75
c-34 85 -50 97 -126 97 -67 0 -80 18 -51 65 12 20 26 52 30 72 8 32 5 40 -37
92 -25 31 -49 60 -53 64 -4 5 -12 -20 -18 -55z"/>
<path d="M1710 978 c-13 -18 -34 -45 -48 -60 -30 -32 -25 -76 14 -133 33 -49
20 -65 -50 -65 -72 0 -94 -15 -122 -85 -14 -33 -28 -66 -31 -74 -9 -20 28 -9
154 44 57 25 121 48 143 51 22 4 40 8 40 10 0 1 -5 15 -11 31 -6 15 -19 88
-29 162 -10 73 -23 138 -28 143 -6 6 -18 -3 -32 -24z"/>
<path d="M740 660 c0 -40 33 -79 123 -146 49 -36 91 -73 94 -80 4 -11 16 -5
48 23 23 21 67 57 99 81 57 43 96 93 96 125 0 21 2 21 -73 -5 -103 -35 -250
-28 -372 18 -11 4 -15 0 -15 -16z"/>
<path d="M505 624 c40 -95 55 -136 55 -155 0 -16 4 -19 17 -14 22 8 93 22 156
30 l48 6 -46 50 c-25 27 -48 62 -51 78 -6 27 -8 28 -39 21 -32 -7 -99 0 -138
16 -18 6 -18 5 -2 -32z"/>
<path d="M1418 655 c-11 -12 -103 -22 -129 -15 -26 8 -29 6 -40 -27 -6 -19
-30 -55 -53 -79 l-42 -43 56 -6 c30 -3 79 -12 107 -19 57 -14 63 -13 63 17 0
10 15 55 34 98 23 52 30 79 22 79 -7 0 -15 -2 -18 -5z"/>
<path d="M767 426 l-68 -11 33 -31 c18 -17 69 -58 114 -92 44 -33 89 -72 98
-87 l18 -27 46 45 c26 24 81 69 122 99 41 31 83 64 92 75 17 19 15 19 -64 31
l-82 12 -29 -28 c-16 -15 -36 -42 -43 -59 -9 -21 -21 -33 -34 -33 -12 0 -26
12 -36 33 -22 44 -64 87 -83 86 -9 -1 -47 -6 -84 -13z"/>
</g>
</svg>
